
    <svg width="160px" height="46px" viewBox="0 0 160 46" version="1.1" xmlns="http://www.w3.org/2000/svg" xmlns:xlink="http://www.w3.org/1999/xlink">
        <title>Logo</title>
        <desc>Created with Sketch.</desc>
        <defs>
            <polygon id="path-1" points="0.077094382 0.172116479 57.8637978 0.172116479 57.8637978 45.8799234 0.077094382 45.8799234"></polygon>
            <polygon id="path-3" points="0 0.0492705935 16.7049596 0.0492705935 16.7049596 18.9992072 0 18.9992072"></polygon>
            <polygon id="path-5" points="0 46 160 46 160 1 0 1"></polygon>
        </defs>
        <g id="Desktop" stroke="none" stroke-width="1" fill="none" fill-rule="evenodd">
            <g id="Logo">
                <g id="Group-3" transform="translate(102.000000, 0.000000)">
                    <mask id="mask-2" fill="white">
                        <use xlink:href="#path-1"></use>
                    </mask>
                    <g id="Clip-2"></g>
                    <path d="M31.8001618,34.0229376 L31.8001618,30.5823986 L35.4437348,30.5823986 C35.4792517,31.1631078 35.8357236,31.2616326 36.3694539,31.2593489 C41.6640719,31.2407532 46.9590157,31.239122 52.2536337,31.2606539 C52.8469933,31.2629376 53.0985438,31.0609943 53.2787348,30.5021433 C53.9030494,28.5655759 54.5896,26.6489092 55.2478022,24.723434 C55.3159034,24.5250794 55.3543528,24.3162851 55.418218,24.0650794 L4.90608315,24.0650794 C4.85753258,24.134895 4.80637528,24.1750227 4.80213933,24.220044 C4.68483596,25.4434482 4.68548764,25.4434482 3.38635281,25.4434482 C2.30520674,25.4437745 1.22438652,25.4434482 0.077094382,25.4434482 L0.077094382,20.9723135 L4.67571236,20.9723135 C4.72719551,21.282895 4.77802697,21.5918454 4.83537528,21.9399447 L55.4374427,21.9399447 C55.2572517,21.3673915 55.1028022,20.8346397 54.9229371,20.3110227 C54.3494539,18.6422993 53.7815101,16.9719447 53.1705551,15.3175759 C53.0835551,15.0813773 52.7694427,14.7645972 52.5589483,14.7636184 C46.9404427,14.733278 41.3219371,14.7394766 35.6271843,14.7394766 C35.6382629,15.4761291 35.1850157,15.5289801 34.6115326,15.5048383 C33.6965663,15.4660156 32.7786674,15.4943986 31.7643191,15.4943986 C31.7643191,14.3724553 31.7428135,13.3467532 31.7907124,12.3243135 C31.7969034,12.1928383 32.1553303,11.9837177 32.3599596,11.9722993 C33.1178697,11.9295617 33.8800157,11.9693631 34.6395551,11.9494624 C35.1605775,11.9357603 35.6424989,11.9302142 35.6164315,12.6505546 L52.2783978,12.6505546 C51.9593978,11.7230511 51.6707011,10.8855901 51.3833079,10.0481291 C50.6348472,7.86688085 49.8769371,5.68922128 49.1486787,3.50144823 C49.0160607,3.10343404 48.8391281,2.94390213 48.4067348,2.94488085 C41.8905326,2.96021418 35.3740045,2.95923546 28.8574764,2.96412908 C28.8053416,2.96412908 28.7528809,2.98533475 28.6346,3.01143404 C28.6776112,3.72949078 28.1578921,3.6606539 27.6626112,3.65608652 C26.7430831,3.64760426 25.8235551,3.6534766 24.8404876,3.6534766 L24.8404876,0.17868227 C25.948027,0.17868227 27.0777236,0.152256738 28.203836,0.205434043 C28.3850045,0.213916312 28.5489034,0.577675177 28.8040382,0.873902128 L29.6476449,0.873902128 C36.3000494,0.873902128 42.9521281,0.882384397 49.6045326,0.859547518 C50.2171169,0.85726383 50.504836,1.02397305 50.7075101,1.62197305 C53.0444539,8.50761844 55.4175663,15.3808667 57.7506,22.2681433 C57.8929933,22.6889943 57.9050494,23.2396894 57.7639596,23.6579305 C55.4087685,30.6222 53.0115438,37.5724411 50.6527685,44.5360582 C50.4575888,45.1118738 50.1043753,45.0936043 49.6589483,45.0942567 C43.0071955,45.1011078 36.3551169,45.113505 29.7030382,45.1245972 C29.3784989,45.1249234 29.0542854,45.1245972 28.7297461,45.1245972 C28.7525551,45.2172496 28.7750382,45.3099021 28.7978472,45.4022284 C28.4110719,45.5565404 28.0321169,45.8152496 27.6358921,45.8436326 C26.7238584,45.9101858 25.8033528,45.8648383 24.8323416,45.8648383 L24.8323416,42.3424128 C25.9545438,42.3424128 27.0803303,42.3159872 28.2022067,42.3701433 C28.3788135,42.3786255 28.5381506,42.7534766 28.7984989,43.0722142 C28.8890831,43.0722142 29.1298809,43.0725404 29.3703528,43.0722142 C35.6424989,43.0689518 41.9146449,43.0594908 48.186791,43.0728667 C48.7153079,43.0738454 49.0098697,42.967817 49.1929933,42.4138596 C50.1138247,39.6320014 51.0802742,36.8658028 52.027173,34.0927532 C52.1040719,33.867973 52.1562067,33.6350369 52.2370157,33.3430511 C51.9229034,33.3270652 51.685364,33.3045546 51.4474989,33.3045546 C46.4246337,33.3022709 41.4014427,33.3019447 36.3782517,33.3048809 C35.9937573,33.3048809 35.5274764,33.172427 35.4867461,33.8193631 C35.4818584,33.8950511 35.2329146,34.0118454 35.095409,34.0141291 C34.0175213,34.0297887 32.9393079,34.0229376 31.8001618,34.0229376" id="Fill-1" fill="#FFFFFF" mask="url(#mask-2)"></path>
                </g>
                <path d="M26,27.53419 L30.4316422,27.53419 L30.4316422,29.5676466 C30.4876767,29.6254386 30.5433835,29.6832306 30.5990903,29.7407068 C31.7027409,27.7293564 33.5020715,27.069012 35.6697226,27.0036407 C37.8983235,26.9363747 39.5678899,27.8013595 40.7069308,29.5865948 C40.8307965,29.5543829 40.9058369,29.5565935 40.9228766,29.5275396 C42.4498992,26.8981625 45.352225,26.693522 47.7099346,27.2689154 C50.0909101,27.8499932 51.879427,29.9671376 51.9452921,32.5826195 C52.0465475,36.6059518 51.9764224,40.6333896 51.9754394,44.6586168 C51.9751117,44.7580948 51.9295631,44.857257 51.8958114,44.995263 L47.2367543,44.995263 L47.2367543,44.0225892 C47.2367543,40.8914008 47.2632969,37.7602124 47.2174207,34.6296556 C47.206607,33.8843601 47.0588201,33.1049579 46.786512,32.4092435 C46.4437512,31.5335214 45.7326699,30.9467591 44.6991443,30.8548603 C43.5479791,30.7522243 42.6058783,31.1975068 42.1002569,32.1512323 C41.7175182,32.8725268 41.4475039,33.7315114 41.428498,34.5355463 C41.3534577,37.717579 41.3970401,40.9021381 41.3967124,44.0860656 C41.3967124,44.3683937 41.3967124,44.6507217 41.3967124,44.9889469 L36.5607042,44.9889469 C36.5449752,44.6987238 36.514828,44.396816 36.5145003,44.0952239 C36.5112234,40.9116122 36.5128618,37.7280005 36.5122065,34.5440729 C36.5122065,34.2547972 36.5161387,33.9648899 36.5013928,33.6762458 C36.408985,31.8884841 35.7090451,31.0907653 34.1659659,31.0051827 C32.1520001,30.8937041 31.2030179,31.5748916 30.8799183,33.3866543 C30.8156916,33.7469857 30.7920981,34.1180545 30.7914427,34.4843861 C30.784889,37.6942095 30.7875105,40.9043487 30.7878382,44.1141721 L30.7878382,45 L26,45 L26,27.53419 Z" id="Fill-4" fill="#FFFFFF"></path>
                <path d="M65.694631,34.6429663 C65.4785373,32.0598841 63.8192463,30.5763659 61.5153653,30.8108962 C59.694004,30.9963766 58.1246403,32.8609254 58.3172455,34.6429663 L65.694631,34.6429663 Z M71,37.7568278 L58.1722883,37.7568278 C57.8666029,39.5028121 59.3020825,41.4618877 60.6422662,41.9202288 C62.4243682,42.5299428 64.7154984,41.9735017 65.3503575,40.5149957 C65.4218295,40.3503047 65.7181195,40.1820406 65.9134091,40.1784674 C67.4190186,40.1505317 68.9256346,40.1628754 70.64566,40.1628754 C70.2946755,40.9161661 70.0607977,41.5944201 69.6869958,42.1908158 C67.7894649,45.2198955 64.8607912,46.2005702 61.3814811,45.9670144 C60.4973089,45.9078945 59.6044124,45.7497003 58.7514462,45.5141954 C56.5257482,44.8999338 54.8875968,43.550897 54.0316107,41.4674099 C52.817258,38.5104433 52.6451212,35.4573259 53.6745863,32.4233736 C54.783241,29.154891 57.2525478,27.424174 60.7375622,27.0671811 C61.755283,26.9625844 62.8132697,26.9801255 63.8266284,27.1198042 C67.3753972,27.6086798 69.4309718,29.7512868 70.2748781,32.9960565 C70.6647863,34.4954916 70.7530358,36.0683392 71,37.7568278 L71,37.7568278 Z" id="Fill-6" fill="#FFFFFF"></path>
                <path d="M74.0868878,23 L78.4859485,23 L78.4859485,27.7219726 L87.9509413,27.7219726 L87.9509413,31.0531178 L87.0989309,31.0531178 C84.493674,31.0531178 81.8881075,31.0716579 79.2831602,31.0393725 C78.6704681,31.0320204 78.4834717,31.2164625 78.4998803,31.8513012 C78.5664436,34.3778698 78.5224809,36.9089136 78.6453908,39.4313267 C78.7224804,41.0117107 79.6094752,41.8111727 80.997088,41.8619982 C82.4407378,41.9150613 83.3292805,41.1804896 83.6206111,39.6160884 C83.7268028,39.047099 83.7305179,38.4531764 83.7376387,37.8701221 C83.7537377,36.5435457 83.7425922,35.2169693 83.7425922,33.7861848 C85.0946014,33.7861848 86.3769512,33.7749968 87.6583723,33.8044052 C87.7794247,33.8069625 87.9998576,34.0649256 87.9976904,34.2014192 C87.9620868,36.3536695 88.1038821,38.5382051 87.7921181,40.6504983 C87.3072896,43.9365719 84.8933635,45.853235 81.5035883,45.9897285 C79.6060696,46.0661265 77.8039068,45.732085 76.2676875,44.4560144 C74.700199,43.1543713 74.0590241,41.363653 74.0358043,39.3936072 C73.9717178,34.0147395 74.0128942,28.6345932 74.0144421,23.2550863 C74.0144421,23.2055394 74.0416867,23.1556729 74.0868878,23" id="Fill-8" fill="#FFFFFF"></path>
                <g id="Group-12" transform="translate(0.000000, 27.000000)">
                    <mask id="mask-4" fill="white">
                        <use xlink:href="#path-3"></use>
                    </mask>
                    <g id="Clip-11"></g>
                    <path d="M-3.26923077e-05,12.7746339 L4.89106346,12.7746339 C5.296775,14.4392271 6.202025,15.2581593 7.91085192,15.3087186 C8.84421731,15.3364136 9.79654423,15.1763627 10.7191212,14.9957017 C11.3634865,14.8697864 11.8349096,14.4582271 11.8607365,13.7146508 C11.8868904,12.9498203 11.5423135,12.4055831 10.8341981,12.1453797 C10.0996019,11.8748712 9.34179423,11.6552441 8.58071731,11.4655661 C6.62996731,10.9780068 4.68248654,10.4984983 2.92658269,9.46895593 C1.18375577,8.44746441 0.577640385,6.9055661 0.662640385,4.9836678 C0.740448077,3.22310847 1.60189038,1.92982034 3.15967885,1.21619322 C6.37235192,-0.256145763 9.71448654,-0.336010169 12.9758712,0.981108475 C15.1172173,1.84544746 15.9874865,3.70551525 16.1372173,6.06280339 C14.6415442,6.06280339 13.2132173,6.07729492 11.7861981,6.03993898 C11.6482365,6.03639661 11.4504481,5.73175254 11.3965058,5.53595593 C11.1012942,4.46519322 10.3483904,3.88198983 9.29242885,3.80437966 C8.35514038,3.73546441 7.39692885,3.8256339 6.45800577,3.93093898 C5.83750577,4.00082034 5.32456346,4.44168475 5.38537115,5.05161695 C5.43081346,5.50761695 5.760025,6.13268475 6.14514038,6.32139661 C7.132775,6.80476949 8.21390962,7.11134576 9.27215962,7.44336271 C10.6959096,7.89034576 12.135025,8.28998983 13.5646596,8.71893898 C17.6668904,9.95007458 17.2879865,15.2085661 15.0606596,17.0779729 C13.4515442,18.4289051 11.5557173,18.8581763 9.54612115,18.9689559 C7.26125577,19.0955153 5.02412115,18.8536678 2.99687115,17.6937017 C1.12490962,16.622939 0.0656788462,15.0420746 -3.26923077e-05,12.7746339" id="Fill-10" fill="#FFFFFF" mask="url(#mask-4)"></path>
                </g>
                <path d="M126.860762,44.9946721 C125.019622,44.9946721 123.355116,45.0176666 121.693281,44.968115 C121.460884,44.9609899 121.154695,44.6384185 121.02681,44.3916319 C119.917585,42.2486044 118.84175,40.0897074 117.754562,37.9363162 C117.610316,37.6509894 117.45672,37.3701968 117.254041,36.9857668 C116.486732,37.7407006 115.767839,38.4020369 115.115059,39.1200498 C114.946438,39.3056256 114.940428,39.6683566 114.937757,39.9504446 C114.922397,41.5911545 114.930411,43.2321882 114.930411,44.9344328 L110,44.9344328 L110,27.0722001 L114.910043,27.0722001 L114.910043,33.7321996 C115.888044,32.6576091 116.70644,31.7682705 117.513818,30.8692159 C118.536228,29.7304998 119.542612,28.5781813 120.57337,27.4465902 C120.744329,27.2593951 121.002436,27.0268587 121.224147,27.0226484 C123.07831,26.9883185 124.933475,27.0032164 127,27.0032164 C125.72182,28.3783554 124.581541,29.6116406 123.433583,30.8381247 C122.742404,31.5768652 122.061242,32.3266171 121.333333,33.0300561 C120.91295,33.4361852 120.87021,33.7830467 121.147683,34.2941087 C122.907352,37.5363406 124.637303,40.7934703 126.375935,44.0463897 C126.513837,44.3045117 126.642724,44.5678155 126.860762,44.9946721" id="Fill-13" fill="#FFFFFF"></path>
                <path d="M100,31.7429946 C99.209902,31.7429946 98.5031529,31.6616323 97.8210651,31.7581317 C95.6989449,32.0589829 94.623525,33.3093761 94.6016732,35.4938586 C94.5735781,38.3018032 94.5932447,41.1103786 94.5923082,43.9186386 C94.591996,44.9993693 94.5916838,44.9993693 93.4856715,44.9996846 C92.3459449,45 91.2068427,45 90,45 L90,27.5329697 L94.2682775,27.5329697 L94.2682775,29.1870207 C95.7960292,27.3238876 97.7314728,26.8224689 100,27.051734 L100,31.7429946 Z" id="Fill-15" fill="#FFFFFF"></path>
                <path d="M102,44.9816985 L102,27 L106.982063,27 L106.982063,27.805015 C106.982063,33.2369188 106.967224,38.6691472 106.999937,44.101051 C107.004321,44.8310828 106.782416,45.0277921 106.049928,44.9969549 C104.736712,44.942097 103.419111,44.9816985 102,44.9816985" id="Fill-17" fill="#FFFFFF"></path>
                <mask id="mask-6" fill="white">
                    <use xlink:href="#path-5"></use>
                </mask>
                <g id="Clip-20"></g>
                <polygon id="Fill-19" fill="#FFFFFF" mask="url(#mask-6)" points="18 45 23 45 23 27 18 27"></polygon>
                <path d="M18,21.0004774 C19.4403939,21.0004774 20.7994273,20.9987235 22.1584608,21.001939 C22.4151128,21.0025237 22.6714156,21.0212322 23,21.0346789 L23,25 L18,25 L18,21.0004774 Z" id="Fill-21" fill="#FFFFFF" mask="url(#mask-6)"></path>
            </g>
        </g>
    </svg>